<svg 
    fill="none"
    version="1.2" 
    viewBox="0 0 500 500"
    xmlns="http://www.w3.org/2000/svg" 
>
    <path d="M330 151.5q-11-12-27.5-21.5-16-9.5-46-9.5-31.5 0-47 11.5-15.5 11-15.5 28.5 0 6 3 13t12 13.5q9 6.5 25.5 11.5l79 22.5q46 12.5 67 40.5 21 27.5 21 64 0 35-18 61-18 25.5-51.5 39.5t-79.5 14q-34 0-64-7.5-29.5-8-52.5-22.5-22.5-15-35.5-34.5-2.5-5-2-8 .5-3.5 5-7L142 334q6-3.5 9.5-3 4 .5 7 4 12 15 23.5 25 12 10 27.5 14.5t37 4.5q32.5 0 52-10 19.5-10.5 19.5-32 0-8.5-4-15.5-4-7.5-13-13-8.5-6-24.5-11L201 276q-29.5-8.5-49.5-24T121 215.5q-10-21-10-44 0-32 17.5-57.5 18-25.5 50-40Q211 59 254 59q28.5 0 53 6.5 25 6.5 45 18t32.5 28q2 2.5 3 6 1 3-3 6.5l-42 31q-3 2-5.5 1.5-2.5-1-7-5z" />

    <style>
        path { fill: #000; }
        @media (prefers-color-scheme: dark) {
            path { fill: #FFF; }
        }
    </style>
</svg>