<svg xmlns="http://www.w3.org/2000/svg" width="500" height="500"><defs><clipPath id="clip-path-dot-color"><circle cx="26" cy="138" r="7" transform="rotate(0,26,138)"/><path d="M 19 159v 14h 7a 7 7, 0, 0, 0, 0 -14" transform="rotate(180,26,166)"/><circle cx="26" cy="194" r="7" transform="rotate(0,26,194)"/><circle cx="26" cy="222" r="7" transform="rotate(0,26,222)"/><path d="M 19 271v 14h 7a 7 7, 0, 0, 0, 0 -14" transform="rotate(-90,26,278)"/><path d="M 19 285v 14h 7a 7 7, 0, 0, 0, 0 -14" transform="rotate(90,26,292)"/><path d="M 19 341v 14h 7a 7 7, 0, 0, 0, 0 -14" transform="rotate(180,26,348)"/><path d="M 33 145v 14h 7a 7 7, 0, 0, 0, 0 -14" transform="rotate(-90,40,152)"/><path d="M 33 159v 14h 14v -7a 7 7, 0, 0, 0, -7 -7" transform="rotate(90,40,166)"/><path d="M 33 201v 14h 7a 7 7, 0, 0, 0, 0 -14" transform="rotate(180,40,208)"/><path d="M 33 229v 14h 7a 7 7, 0, 0, 0, 0 -14" transform="rotate(-90,40,236)"/><rect x="33" y="243" width="14" height="14" transform="rotate(0,40,250)"/><path d="M 33 257v 14h 14v -7a 7 7, 0, 0, 0, -7 -7" transform="rotate(180,40,264)"/><path d="M 33 313v 14h 7a 7 7, 0, 0, 0, 0 -14" transform="rotate(-90,40,320)"/><rect x="33" y="327" width="14" height="14" transform="rotate(0,40,334)"/><rect x="33" y="341" width="14" height="14" transform="rotate(0,40,348)"/><path d="M 33 355v 14h 14v -7a 7 7, 0, 0, 0, -7 -7" transform="rotate(180,40,362)"/><path d="M 47 131v 14h 7a 7 7, 0, 0, 0, 0 -14" transform="rotate(180,54,138)"/><path d="M 47 173v 14h 7a 7 7, 0, 0, 0, 0 -14" transform="rotate(180,54,180)"/><path d="M 47 201v 14h 14v -7a 7 7, 0, 0, 0, -7 -7" transform="rotate(0,54,208)"/><path d="M 47 215v 14h 7a 7 7, 0, 0, 0, 0 -14" transform="rotate(90,54,222)"/><rect x="47" y="243" width="14" height="14" transform="rotate(0,54,250)"/><rect x="47" y="257" width="14" height="14" transform="rotate(0,54,264)"/><circle cx="54" cy="292" r="7" transform="rotate(0,54,292)"/><path d="M 47 355v 14h 7a 7 7, 0, 0, 0, 0 -14" transform="rotate(0,54,362)"/><path d="M 61 131v 14h 7a 7 7, 0, 0, 0, 0 -14" transform="rotate(0,68,138)"/><path d="M 61 159v 14h 7a 7 7, 0, 0, 0, 0 -14" transform="rotate(-90,68,166)"/><path d="M 61 173v 14h 14v -7a 7 7, 0, 0, 0, -7 -7" transform="rotate(90,68,180)"/><path d="M 61 243v 14h 14v -7a 7 7, 0, 0, 0, -7 -7" transform="rotate(0,68,250)"/><path d="M 61 257v 14h 14v -7a 7 7, 0, 0, 0, -7 -7" transform="rotate(90,68,264)"/><circle cx="68" cy="320" r="7" transform="rotate(0,68,320)"/><circle cx="68" cy="348" r="7" transform="rotate(0,68,348)"/><circle cx="82" cy="208" r="7" transform="rotate(0,82,208)"/><path d="M 75 229v 14h 7a 7 7, 0, 0, 0, 0 -14" transform="rotate(180,82,236)"/><circle cx="82" cy="292" r="7" transform="rotate(0,82,292)"/><path d="M 75 327v 14h 7a 7 7, 0, 0, 0, 0 -14" transform="rotate(180,82,334)"/><path d="M 89 131v 14h 14v -7a 7 7, 0, 0, 0, -7 -7" transform="rotate(-90,96,138)"/><path d="M 89 145v 14h 7a 7 7, 0, 0, 0, 0 -14" transform="rotate(90,96,152)"/><path d="M 89 173v 14h 7a 7 7, 0, 0, 0, 0 -14" transform="rotate(-90,96,180)"/><path d="M 89 187v 14h 14v -7a 7 7, 0, 0, 0, -7 -7" transform="rotate(180,96,194)"/><path d="M 89 229v 14h 7a 7 7, 0, 0, 0, 0 -14" transform="rotate(0,96,236)"/><path d="M 89 299v 14h 14v -7a 7 7, 0, 0, 0, -7 -7" transform="rotate(-90,96,306)"/><rect x="89" y="313" width="14" height="14" transform="rotate(0,96,320)"/><rect x="89" y="327" width="14" height="14" transform="rotate(0,96,334)"/><path d="M 89 341v 14h 7a 7 7, 0, 0, 0, 0 -14" transform="rotate(90,96,348)"/><rect x="103" y="131" width="14" height="14" transform="rotate(0,110,138)"/><circle cx="110" cy="166" r="7" transform="rotate(0,110,166)"/><rect x="103" y="187" width="14" height="14" transform="rotate(0,110,194)"/><path d="M 103 215v 14h 7a 7 7, 0, 0, 0, 0 -14" transform="rotate(180,110,222)"/><path d="M 103 243v 14h 7a 7 7, 0, 0, 0, 0 -14" transform="rotate(180,110,250)"/><path d="M 103 271v 14h 7a 7 7, 0, 0, 0, 0 -14" transform="rotate(180,110,278)"/><rect x="103" y="299" width="14" height="14" transform="rotate(0,110,306)"/><rect x="103" y="327" width="14" height="14" transform="rotate(0,110,334)"/><path d="M 103 355v 14h 7a 7 7, 0, 0, 0, 0 -14" transform="rotate(180,110,362)"/><rect x="117" y="131" width="14" height="14" transform="rotate(0,124,138)"/><path d="M 117 173v 14h 14v -7a 7 7, 0, 0, 0, -7 -7" transform="rotate(-90,124,180)"/><rect x="117" y="187" width="14" height="14" transform="rotate(0,124,194)"/><path d="M 117 215v 14h 14v -7a 7 7, 0, 0, 0, -7 -7" transform="rotate(0,124,222)"/><rect x="117" y="229" width="14" height="14" transform="rotate(0,124,236)"/><rect x="117" y="243" width="14" height="14" transform="rotate(0,124,250)"/><rect x="117" y="257" width="14" height="14" transform="rotate(0,124,264)"/><rect x="117" y="271" width="14" height="14" transform="rotate(0,124,278)"/><rect x="117" y="285" width="14" height="14" transform="rotate(0,124,292)"/><rect x="117" y="299" width="14" height="14" transform="rotate(0,124,306)"/><rect x="117" y="313" width="14" height="14" transform="rotate(0,124,320)"/><path d="M 117 327v 14h 14v -7a 7 7, 0, 0, 0, -7 -7" transform="rotate(90,124,334)"/><path d="M 117 355v 14h 7a 7 7, 0, 0, 0, 0 -14" transform="rotate(0,124,362)"/><circle cx="138" cy="40" r="7" transform="rotate(0,138,40)"/><circle cx="138" cy="68" r="7" transform="rotate(0,138,68)"/><path d="M 131 89v 14h 7a 7 7, 0, 0, 0, 0 -14" transform="rotate(-90,138,96)"/><rect x="131" y="103" width="14" height="14" transform="rotate(0,138,110)"/><rect x="131" y="117" width="14" height="14" transform="rotate(0,138,124)"/><rect x="131" y="131" width="14" height="14" transform="rotate(0,138,138)"/><path d="M 131 159v 14h 14v -7a 7 7, 0, 0, 0, -7 -7" transform="rotate(-90,138,166)"/><rect x="131" y="173" width="14" height="14" transform="rotate(0,138,180)"/><rect x="131" y="187" width="14" height="14" transform="rotate(0,138,194)"/><rect x="131" y="243" width="14" height="14" transform="rotate(0,138,250)"/><path d="M 131 285v 14h 14v -7a 7 7, 0, 0, 0, -7 -7" transform="rotate(0,138,292)"/><rect x="131" y="299" width="14" height="14" transform="rotate(0,138,306)"/><path d="M 131 313v 14h 14v -7a 7 7, 0, 0, 0, -7 -7" transform="rotate(90,138,320)"/><path d="M 131 369v 14h 14v -7a 7 7, 0, 0, 0, -7 -7" transform="rotate(-90,138,376)"/><rect x="131" y="383" width="14" height="14" transform="rotate(0,138,390)"/><path d="M 131 397v 14h 14v -7a 7 7, 0, 0, 0, -7 -7" transform="rotate(180,138,404)"/><path d="M 131 425v 14h 7a 7 7, 0, 0, 0, 0 -14" transform="rotate(-90,138,432)"/><path d="M 131 439v 14h 7a 7 7, 0, 0, 0, 0 -14" transform="rotate(90,138,446)"/><path d="M 131 467v 14h 7a 7 7, 0, 0, 0, 0 -14" transform="rotate(180,138,474)"/><circle cx="152" cy="26" r="7" transform="rotate(0,152,26)"/><path d="M 145 75v 14h 7a 7 7, 0, 0, 0, 0 -14" transform="rotate(180,152,82)"/><path d="M 145 117v 14h 14v -7a 7 7, 0, 0, 0, -7 -7" transform="rotate(0,152,124)"/><path d="M 145 131v 14h 14v -7a 7 7, 0, 0, 0, -7 -7" transform="rotate(90,152,138)"/><rect x="145" y="159" width="14" height="14" transform="rotate(0,152,166)"/><rect x="145" y="187" width="14" height="14" transform="rotate(0,152,194)"/><path d="M 145 201v 14h 14v -7a 7 7, 0, 0, 0, -7 -7" transform="rotate(180,152,208)"/><rect x="145" y="243" width="14" height="14" transform="rotate(0,152,250)"/><rect x="145" y="299" width="14" height="14" transform="rotate(0,152,306)"/><path d="M 145 355v 14h 7a 7 7, 0, 0, 0, 0 -14" transform="rotate(-90,152,362)"/><rect x="145" y="369" width="14" height="14" transform="rotate(0,152,376)"/><rect x="145" y="383" width="14" height="14" transform="rotate(0,152,390)"/><rect x="145" y="397" width="14" height="14" transform="rotate(0,152,404)"/><rect x="145" y="467" width="14" height="14" transform="rotate(0,152,474)"/><path d="M 159 61v 14h 7a 7 7, 0, 0, 0, 0 -14" transform="rotate(-90,166,68)"/><rect x="159" y="75" width="14" height="14" transform="rotate(0,166,82)"/><rect x="159" y="89" width="14" height="14" transform="rotate(0,166,96)"/><path d="M 159 103v 14h 7a 7 7, 0, 0, 0, 0 -14" transform="rotate(90,166,110)"/><rect x="159" y="159" width="14" height="14" transform="rotate(0,166,166)"/><rect x="159" y="173" width="14" height="14" transform="rotate(0,166,180)"/><rect x="159" y="187" width="14" height="14" transform="rotate(0,166,194)"/><rect x="159" y="201" width="14" height="14" transform="rotate(0,166,208)"/><path d="M 159 215v 14h 7a 7 7, 0, 0, 0, 0 -14" transform="rotate(90,166,222)"/><path d="M 159 243v 14h 14v -7a 7 7, 0, 0, 0, -7 -7" transform="rotate(0,166,250)"/><path d="M 159 257v 14h 14v -7a 7 7, 0, 0, 0, -7 -7" transform="rotate(180,166,264)"/><path d="M 159 285v 14h 7a 7 7, 0, 0, 0, 0 -14" transform="rotate(-90,166,292)"/><rect x="159" y="299" width="14" height="14" transform="rotate(0,166,306)"/><rect x="159" y="313" width="14" height="14" transform="rotate(0,166,320)"/><path d="M 159 327v 14h 7a 7 7, 0, 0, 0, 0 -14" transform="rotate(90,166,334)"/><path d="M 159 369v 14h 14v -7a 7 7, 0, 0, 0, -7 -7" transform="rotate(0,166,376)"/><rect x="159" y="383" width="14" height="14" transform="rotate(0,166,390)"/><rect x="159" y="397" width="14" height="14" transform="rotate(0,166,404)"/><path d="M 159 411v 14h 14v -7a 7 7, 0, 0, 0, -7 -7" transform="rotate(180,166,418)"/><circle cx="166" cy="446" r="7" transform="rotate(0,166,446)"/><path d="M 159 467v 14h 7a 7 7, 0, 0, 0, 0 -14" transform="rotate(0,166,474)"/><path d="M 173 19v 14h 7a 7 7, 0, 0, 0, 0 -14" transform="rotate(180,180,26)"/><path d="M 173 47v 14h 7a 7 7, 0, 0, 0, 0 -14" transform="rotate(180,180,54)"/><circle cx="180" cy="138" r="7" transform="rotate(0,180,138)"/><rect x="173" y="159" width="14" height="14" transform="rotate(0,180,166)"/><rect x="173" y="173" width="14" height="14" transform="rotate(0,180,180)"/><rect x="173" y="187" width="14" height="14" transform="rotate(0,180,194)"/><path d="M 173 201v 14h 14v -7a 7 7, 0, 0, 0, -7 -7" transform="rotate(90,180,208)"/><path d="M 173 229v 14h 7a 7 7, 0, 0, 0, 0 -14" transform="rotate(180,180,236)"/><path d="M 173 257v 14h 7a 7 7, 0, 0, 0, 0 -14" transform="rotate(0,180,264)"/><path d="M 173 411v 14h 14v -7a 7 7, 0, 0, 0, -7 -7" transform="rotate(0,180,418)"/><path d="M 173 425v 14h 14v -7a 7 7, 0, 0, 0, -7 -7" transform="rotate(180,180,432)"/><circle cx="180" cy="460" r="7" transform="rotate(0,180,460)"/><path d="M 187 19v 14h 7a 7 7, 0, 0, 0, 0 -14" transform="rotate(0,194,26)"/><path d="M 187 47v 14h 7a 7 7, 0, 0, 0, 0 -14" transform="rotate(0,194,54)"/><circle cx="194" cy="82" r="7" transform="rotate(0,194,82)"/><circle cx="194" cy="110" r="7" transform="rotate(0,194,110)"/><path d="M 187 145v 14h 7a 7 7, 0, 0, 0, 0 -14" transform="rotate(-90,194,152)"/><rect x="187" y="159" width="14" height="14" transform="rotate(0,194,166)"/><rect x="187" y="173" width="14" height="14" transform="rotate(0,194,180)"/><rect x="187" y="187" width="14" height="14" transform="rotate(0,194,194)"/><path d="M 187 229v 14h 7a 7 7, 0, 0, 0, 0 -14" transform="rotate(0,194,236)"/><circle cx="194" cy="292" r="7" transform="rotate(0,194,292)"/><path d="M 187 369v 14h 7a 7 7, 0, 0, 0, 0 -14" transform="rotate(-90,194,376)"/><path d="M 187 383v 14h 14v -7a 7 7, 0, 0, 0, -7 -7" transform="rotate(180,194,390)"/><rect x="187" y="425" width="14" height="14" transform="rotate(0,194,432)"/><path d="M 201 117v 14h 7a 7 7, 0, 0, 0, 0 -14" transform="rotate(-90,208,124)"/><path d="M 201 131v 14h 14v -7a 7 7, 0, 0, 0, -7 -7" transform="rotate(180,208,138)"/><path d="M 201 187v 14h 14v -7a 7 7, 0, 0, 0, -7 -7" transform="rotate(0,208,194)"/><path d="M 201 201v 14h 14v -7a 7 7, 0, 0, 0, -7 -7" transform="rotate(180,208,208)"/><path d="M 201 327v 14h 14v -7a 7 7, 0, 0, 0, -7 -7" transform="rotate(-90,208,334)"/><path d="M 201 341v 14h 14v -7a 7 7, 0, 0, 0, -7 -7" transform="rotate(180,208,348)"/><rect x="201" y="383" width="14" height="14" transform="rotate(0,208,390)"/><path d="M 201 411v 14h 7a 7 7, 0, 0, 0, 0 -14" transform="rotate(-90,208,418)"/><rect x="201" y="425" width="14" height="14" transform="rotate(0,208,432)"/><path d="M 201 453v 14h 14v -7a 7 7, 0, 0, 0, -7 -7" transform="rotate(-90,208,460)"/><path d="M 201 467v 14h 7a 7 7, 0, 0, 0, 0 -14" transform="rotate(90,208,474)"/><path d="M 215 19v 14h 7a 7 7, 0, 0, 0, 0 -14" transform="rotate(180,222,26)"/><path d="M 215 47v 14h 7a 7 7, 0, 0, 0, 0 -14" transform="rotate(180,222,54)"/><circle cx="222" cy="82" r="7" transform="rotate(0,222,82)"/><circle cx="222" cy="110" r="7" transform="rotate(0,222,110)"/><rect x="215" y="131" width="14" height="14" transform="rotate(0,222,138)"/><rect x="215" y="145" width="14" height="14" transform="rotate(0,222,152)"/><rect x="215" y="159" width="14" height="14" transform="rotate(0,222,166)"/><path d="M 215 173v 14h 14v -7a 7 7, 0, 0, 0, -7 -7" transform="rotate(180,222,180)"/><rect x="215" y="201" width="14" height="14" transform="rotate(0,222,208)"/><circle cx="222" cy="306" r="7" transform="rotate(0,222,306)"/><rect x="215" y="327" width="14" height="14" transform="rotate(0,222,334)"/><rect x="215" y="341" width="14" height="14" transform="rotate(0,222,348)"/><path d="M 215 369v 14h 7a 7 7, 0, 0, 0, 0 -14" transform="rotate(-90,222,376)"/><rect x="215" y="383" width="14" height="14" transform="rotate(0,222,390)"/><path d="M 215 425v 14h 7a 7 7, 0, 0, 0, 0 -14" transform="rotate(0,222,432)"/><rect x="215" y="453" width="14" height="14" transform="rotate(0,222,460)"/><path d="M 229 19v 14h 7a 7 7, 0, 0, 0, 0 -14" transform="rotate(0,236,26)"/><rect x="229" y="47" width="14" height="14" transform="rotate(0,236,54)"/><path d="M 229 61v 14h 14v -7a 7 7, 0, 0, 0, -7 -7" transform="rotate(180,236,68)"/><path d="M 229 117v 14h 7a 7 7, 0, 0, 0, 0 -14" transform="rotate(-90,236,124)"/><path d="M 229 131v 14h 14v -7a 7 7, 0, 0, 0, -7 -7" transform="rotate(90,236,138)"/><rect x="229" y="159" width="14" height="14" transform="rotate(0,236,166)"/><path d="M 229 173v 14h 14v -7a 7 7, 0, 0, 0, -7 -7" transform="rotate(90,236,180)"/><rect x="229" y="201" width="14" height="14" transform="rotate(0,236,208)"/><path d="M 229 215v 14h 7a 7 7, 0, 0, 0, 0 -14" transform="rotate(90,236,222)"/><path d="M 229 243v 14h 7a 7 7, 0, 0, 0, 0 -14" transform="rotate(-90,236,250)"/><rect x="229" y="257" width="14" height="14" transform="rotate(0,236,264)"/><rect x="229" y="271" width="14" height="14" transform="rotate(0,236,278)"/><path d="M 229 285v 14h 14v -7a 7 7, 0, 0, 0, -7 -7" transform="rotate(180,236,292)"/><path d="M 229 313v 14h 14v -7a 7 7, 0, 0, 0, -7 -7" transform="rotate(-90,236,320)"/><rect x="229" y="327" width="14" height="14" transform="rotate(0,236,334)"/><path d="M 229 341v 14h 14v -7a 7 7, 0, 0, 0, -7 -7" transform="rotate(90,236,348)"/><rect x="229" y="383" width="14" height="14" transform="rotate(0,236,390)"/><path d="M 229 411v 14h 7a 7 7, 0, 0, 0, 0 -14" transform="rotate(180,236,418)"/><rect x="229" y="453" width="14" height="14" transform="rotate(0,236,460)"/><path d="M 243 33v 14h 7a 7 7, 0, 0, 0, 0 -14" transform="rotate(-90,250,40)"/><rect x="243" y="47" width="14" height="14" transform="rotate(0,250,54)"/><rect x="243" y="61" width="14" height="14" transform="rotate(0,250,68)"/><rect x="243" y="75" width="14" height="14" transform="rotate(0,250,82)"/><rect x="243" y="89" width="14" height="14" transform="rotate(0,250,96)"/><path d="M 243 103v 14h 7a 7 7, 0, 0, 0, 0 -14" transform="rotate(90,250,110)"/><path d="M 243 159v 14h 7a 7 7, 0, 0, 0, 0 -14" transform="rotate(0,250,166)"/><path d="M 243 187v 14h 7a 7 7, 0, 0, 0, 0 -14" transform="rotate(-90,250,194)"/><path d="M 243 201v 14h 14v -7a 7 7, 0, 0, 0, -7 -7" transform="rotate(90,250,208)"/><path d="M 243 285v 14h 14v -7a 7 7, 0, 0, 0, -7 -7" transform="rotate(0,250,292)"/><rect x="243" y="299" width="14" height="14" transform="rotate(0,250,306)"/><rect x="243" y="313" width="14" height="14" transform="rotate(0,250,320)"/><path d="M 243 327v 14h 14v -7a 7 7, 0, 0, 0, -7 -7" transform="rotate(90,250,334)"/><path d="M 243 355v 14h 7a 7 7, 0, 0, 0, 0 -14" transform="rotate(180,250,362)"/><path d="M 243 383v 14h 7a 7 7, 0, 0, 0, 0 -14" transform="rotate(0,250,390)"/><path d="M 243 411v 14h 7a 7 7, 0, 0, 0, 0 -14" transform="rotate(0,250,418)"/><path d="M 243 453v 14h 7a 7 7, 0, 0, 0, 0 -14" transform="rotate(0,250,460)"/><rect x="257" y="61" width="14" height="14" transform="rotate(0,264,68)"/><path d="M 257 75v 14h 14v -7a 7 7, 0, 0, 0, -7 -7" transform="rotate(90,264,82)"/><circle cx="264" cy="152" r="7" transform="rotate(0,264,152)"/><circle cx="264" cy="180" r="7" transform="rotate(0,264,180)"/><path d="M 257 229v 14h 7a 7 7, 0, 0, 0, 0 -14" transform="rotate(-90,264,236)"/><rect x="257" y="243" width="14" height="14" transform="rotate(0,264,250)"/><rect x="257" y="257" width="14" height="14" transform="rotate(0,264,264)"/><path d="M 257 271v 14h 14v -7a 7 7, 0, 0, 0, -7 -7" transform="rotate(180,264,278)"/><path d="M 257 313v 14h 7a 7 7, 0, 0, 0, 0 -14" transform="rotate(0,264,320)"/><path d="M 257 341v 14h 7a 7 7, 0, 0, 0, 0 -14" transform="rotate(-90,264,348)"/><rect x="257" y="355" width="14" height="14" transform="rotate(0,264,362)"/><circle cx="264" cy="404" r="7" transform="rotate(0,264,404)"/><circle cx="264" cy="432" r="7" transform="rotate(0,264,432)"/><path d="M 271 33v 14h 7a 7 7, 0, 0, 0, 0 -14" transform="rotate(-90,278,40)"/><rect x="271" y="47" width="14" height="14" transform="rotate(0,278,54)"/><rect x="271" y="61" width="14" height="14" transform="rotate(0,278,68)"/><path d="M 271 103v 14h 7a 7 7, 0, 0, 0, 0 -14" transform="rotate(-90,278,110)"/><rect x="271" y="117" width="14" height="14" transform="rotate(0,278,124)"/><path d="M 271 131v 14h 7a 7 7, 0, 0, 0, 0 -14" transform="rotate(90,278,138)"/><circle cx="278" cy="166" r="7" transform="rotate(0,278,166)"/><path d="M 271 187v 14h 7a 7 7, 0, 0, 0, 0 -14" transform="rotate(-90,278,194)"/><rect x="271" y="201" width="14" height="14" transform="rotate(0,278,208)"/><path d="M 271 215v 14h 14v -7a 7 7, 0, 0, 0, -7 -7" transform="rotate(180,278,222)"/><path d="M 271 271v 14h 7a 7 7, 0, 0, 0, 0 -14" transform="rotate(0,278,278)"/><circle cx="278" cy="334" r="7" transform="rotate(0,278,334)"/><path d="M 271 355v 14h 14v -7a 7 7, 0, 0, 0, -7 -7" transform="rotate(0,278,362)"/><path d="M 271 369v 14h 14v -7a 7 7, 0, 0, 0, -7 -7" transform="rotate(180,278,376)"/><path d="M 271 439v 14h 7a 7 7, 0, 0, 0, 0 -14" transform="rotate(-90,278,446)"/><rect x="271" y="453" width="14" height="14" transform="rotate(0,278,460)"/><path d="M 271 467v 14h 7a 7 7, 0, 0, 0, 0 -14" transform="rotate(90,278,474)"/><rect x="285" y="61" width="14" height="14" transform="rotate(0,292,68)"/><path d="M 285 117v 14h 7a 7 7, 0, 0, 0, 0 -14" transform="rotate(0,292,124)"/><rect x="285" y="201" width="14" height="14" transform="rotate(0,292,208)"/><rect x="285" y="215" width="14" height="14" transform="rotate(0,292,222)"/><path d="M 285 229v 14h 7a 7 7, 0, 0, 0, 0 -14" transform="rotate(90,292,236)"/><circle cx="292" cy="264" r="7" transform="rotate(0,292,264)"/><path d="M 285 285v 14h 14v -7a 7 7, 0, 0, 0, -7 -7" transform="rotate(-90,292,292)"/><rect x="285" y="299" width="14" height="14" transform="rotate(0,292,306)"/><path d="M 285 313v 14h 7a 7 7, 0, 0, 0, 0 -14" transform="rotate(90,292,320)"/><rect x="285" y="369" width="14" height="14" transform="rotate(0,292,376)"/><rect x="285" y="383" width="14" height="14" transform="rotate(0,292,390)"/><path d="M 285 397v 14h 7a 7 7, 0, 0, 0, 0 -14" transform="rotate(90,292,404)"/><rect x="285" y="453" width="14" height="14" transform="rotate(0,292,460)"/><rect x="299" y="61" width="14" height="14" transform="rotate(0,306,68)"/><path d="M 299 75v 14h 7a 7 7, 0, 0, 0, 0 -14" transform="rotate(90,306,82)"/><circle cx="306" cy="110" r="7" transform="rotate(0,306,110)"/><path d="M 299 145v 14h 7a 7 7, 0, 0, 0, 0 -14" transform="rotate(180,306,152)"/><path d="M 299 173v 14h 7a 7 7, 0, 0, 0, 0 -14" transform="rotate(180,306,180)"/><rect x="299" y="201" width="14" height="14" transform="rotate(0,306,208)"/><rect x="299" y="215" width="14" height="14" transform="rotate(0,306,222)"/><circle cx="306" cy="250" r="7" transform="rotate(0,306,250)"/><path d="M 299 271v 14h 7a 7 7, 0, 0, 0, 0 -14" transform="rotate(-90,306,278)"/><rect x="299" y="285" width="14" height="14" transform="rotate(0,306,292)"/><path d="M 299 327v 14h 14v -7a 7 7, 0, 0, 0, -7 -7" transform="rotate(-90,306,334)"/><rect x="299" y="341" width="14" height="14" transform="rotate(0,306,348)"/><rect x="299" y="355" width="14" height="14" transform="rotate(0,306,362)"/><rect x="299" y="369" width="14" height="14" transform="rotate(0,306,376)"/><rect x="299" y="453" width="14" height="14" transform="rotate(0,306,460)"/><rect x="313" y="61" width="14" height="14" transform="rotate(0,320,68)"/><path d="M 313 145v 14h 14v -7a 7 7, 0, 0, 0, -7 -7" transform="rotate(0,320,152)"/><rect x="313" y="159" width="14" height="14" transform="rotate(0,320,166)"/><rect x="313" y="173" width="14" height="14" transform="rotate(0,320,180)"/><rect x="313" y="187" width="14" height="14" transform="rotate(0,320,194)"/><rect x="313" y="201" width="14" height="14" transform="rotate(0,320,208)"/><rect x="313" y="215" width="14" height="14" transform="rotate(0,320,222)"/><path d="M 313 229v 14h 7a 7 7, 0, 0, 0, 0 -14" transform="rotate(90,320,236)"/><circle cx="320" cy="264" r="7" transform="rotate(0,320,264)"/><path d="M 313 285v 14h 14v -7a 7 7, 0, 0, 0, -7 -7" transform="rotate(0,320,292)"/><rect x="313" y="299" width="14" height="14" transform="rotate(0,320,306)"/><rect x="313" y="313" width="14" height="14" transform="rotate(0,320,320)"/><rect x="313" y="327" width="14" height="14" transform="rotate(0,320,334)"/><rect x="313" y="341" width="14" height="14" transform="rotate(0,320,348)"/><rect x="313" y="355" width="14" height="14" transform="rotate(0,320,362)"/><rect x="313" y="369" width="14" height="14" transform="rotate(0,320,376)"/><rect x="313" y="383" width="14" height="14" transform="rotate(0,320,390)"/><path d="M 313 397v 14h 14v -7a 7 7, 0, 0, 0, -7 -7" transform="rotate(180,320,404)"/><path d="M 313 425v 14h 14v -7a 7 7, 0, 0, 0, -7 -7" transform="rotate(-90,320,432)"/><rect x="313" y="439" width="14" height="14" transform="rotate(0,320,446)"/><rect x="313" y="453" width="14" height="14" transform="rotate(0,320,460)"/><path d="M 313 467v 14h 14v -7a 7 7, 0, 0, 0, -7 -7" transform="rotate(180,320,474)"/><path d="M 327 19v 14h 7a 7 7, 0, 0, 0, 0 -14" transform="rotate(-90,334,26)"/><path d="M 327 33v 14h 14v -7a 7 7, 0, 0, 0, -7 -7" transform="rotate(180,334,40)"/><rect x="327" y="61" width="14" height="14" transform="rotate(0,334,68)"/><path d="M 327 75v 14h 7a 7 7, 0, 0, 0, 0 -14" transform="rotate(90,334,82)"/><path d="M 327 103v 14h 7a 7 7, 0, 0, 0, 0 -14" transform="rotate(-90,334,110)"/><path d="M 327 117v 14h 14v -7a 7 7, 0, 0, 0, -7 -7" transform="rotate(180,334,124)"/><rect x="327" y="159" width="14" height="14" transform="rotate(0,334,166)"/><path d="M 327 187v 14h 7a 7 7, 0, 0, 0, 0 -14" transform="rotate(0,334,194)"/><rect x="327" y="215" width="14" height="14" transform="rotate(0,334,222)"/><path d="M 327 243v 14h 7a 7 7, 0, 0, 0, 0 -14" transform="rotate(180,334,250)"/><path d="M 327 299v 14h 7a 7 7, 0, 0, 0, 0 -14" transform="rotate(0,334,306)"/><rect x="327" y="341" width="14" height="14" transform="rotate(0,334,348)"/><rect x="327" y="355" width="14" height="14" transform="rotate(0,334,362)"/><rect x="327" y="369" width="14" height="14" transform="rotate(0,334,376)"/><rect x="327" y="383" width="14" height="14" transform="rotate(0,334,390)"/><rect x="327" y="397" width="14" height="14" transform="rotate(0,334,404)"/><rect x="327" y="411" width="14" height="14" transform="rotate(0,334,418)"/><rect x="327" y="425" width="14" height="14" transform="rotate(0,334,432)"/><path d="M 327 439v 14h 14v -7a 7 7, 0, 0, 0, -7 -7" transform="rotate(90,334,446)"/><rect x="327" y="467" width="14" height="14" transform="rotate(0,334,474)"/><path d="M 341 33v 14h 7a 7 7, 0, 0, 0, 0 -14" transform="rotate(0,348,40)"/><rect x="341" y="61" width="14" height="14" transform="rotate(0,348,68)"/><path d="M 341 89v 14h 7a 7 7, 0, 0, 0, 0 -14" transform="rotate(180,348,96)"/><path d="M 341 117v 14h 14v -7a 7 7, 0, 0, 0, -7 -7" transform="rotate(0,348,124)"/><rect x="341" y="131" width="14" height="14" transform="rotate(0,348,138)"/><rect x="341" y="145" width="14" height="14" transform="rotate(0,348,152)"/><path d="M 341 159v 14h 14v -7a 7 7, 0, 0, 0, -7 -7" transform="rotate(90,348,166)"/><rect x="341" y="215" width="14" height="14" transform="rotate(0,348,222)"/><rect x="341" y="229" width="14" height="14" transform="rotate(0,348,236)"/><rect x="341" y="243" width="14" height="14" transform="rotate(0,348,250)"/><path d="M 341 313v 14h 14v -7a 7 7, 0, 0, 0, -7 -7" transform="rotate(-90,348,320)"/><rect x="341" y="327" width="14" height="14" transform="rotate(0,348,334)"/><rect x="341" y="341" width="14" height="14" transform="rotate(0,348,348)"/><rect x="341" y="355" width="14" height="14" transform="rotate(0,348,362)"/><rect x="341" y="397" width="14" height="14" transform="rotate(0,348,404)"/><path d="M 341 425v 14h 7a 7 7, 0, 0, 0, 0 -14" transform="rotate(0,348,432)"/><rect x="341" y="467" width="14" height="14" transform="rotate(0,348,474)"/><circle cx="362" cy="26" r="7" transform="rotate(0,362,26)"/><path d="M 355 61v 14h 14v -7a 7 7, 0, 0, 0, -7 -7" transform="rotate(0,362,68)"/><rect x="355" y="75" width="14" height="14" transform="rotate(0,362,82)"/><rect x="355" y="89" width="14" height="14" transform="rotate(0,362,96)"/><path d="M 355 103v 14h 7a 7 7, 0, 0, 0, 0 -14" transform="rotate(90,362,110)"/><rect x="355" y="131" width="14" height="14" transform="rotate(0,362,138)"/><path d="M 355 215v 14h 14v -7a 7 7, 0, 0, 0, -7 -7" transform="rotate(0,362,222)"/><rect x="355" y="229" width="14" height="14" transform="rotate(0,362,236)"/><rect x="355" y="243" width="14" height="14" transform="rotate(0,362,250)"/><path d="M 355 271v 14h 7a 7 7, 0, 0, 0, 0 -14" transform="rotate(-90,362,278)"/><rect x="355" y="285" width="14" height="14" transform="rotate(0,362,292)"/><rect x="355" y="299" width="14" height="14" transform="rotate(0,362,306)"/><path d="M 355 313v 14h 14v -7a 7 7, 0, 0, 0, -7 -7" transform="rotate(90,362,320)"/><rect x="355" y="341" width="14" height="14" transform="rotate(0,362,348)"/><rect x="355" y="355" width="14" height="14" transform="rotate(0,362,362)"/><rect x="355" y="369" width="14" height="14" transform="rotate(0,362,376)"/><rect x="355" y="383" width="14" height="14" transform="rotate(0,362,390)"/><rect x="355" y="397" width="14" height="14" transform="rotate(0,362,404)"/><path d="M 355 411v 14h 14v -7a 7 7, 0, 0, 0, -7 -7" transform="rotate(180,362,418)"/><rect x="355" y="467" width="14" height="14" transform="rotate(0,362,474)"/><rect x="369" y="131" width="14" height="14" transform="rotate(0,376,138)"/><path d="M 369 145v 14h 14v -7a 7 7, 0, 0, 0, -7 -7" transform="rotate(180,376,152)"/><path d="M 369 173v 14h 7a 7 7, 0, 0, 0, 0 -14" transform="rotate(-90,376,180)"/><path d="M 369 187v 14h 14v -7a 7 7, 0, 0, 0, -7 -7" transform="rotate(180,376,194)"/><path d="M 369 229v 14h 14v -7a 7 7, 0, 0, 0, -7 -7" transform="rotate(0,376,236)"/><rect x="369" y="243" width="14" height="14" transform="rotate(0,376,250)"/><path d="M 369 257v 14h 14v -7a 7 7, 0, 0, 0, -7 -7" transform="rotate(180,376,264)"/><path d="M 369 285v 14h 14v -7a 7 7, 0, 0, 0, -7 -7" transform="rotate(0,376,292)"/><rect x="369" y="299" width="14" height="14" transform="rotate(0,376,306)"/><path d="M 369 327v 14h 7a 7 7, 0, 0, 0, 0 -14" transform="rotate(-90,376,334)"/><rect x="369" y="341" width="14" height="14" transform="rotate(0,376,348)"/><rect x="369" y="355" width="14" height="14" transform="rotate(0,376,362)"/><rect x="369" y="411" width="14" height="14" transform="rotate(0,376,418)"/><path d="M 369 425v 14h 14v -7a 7 7, 0, 0, 0, -7 -7" transform="rotate(180,376,432)"/><path d="M 369 467v 14h 7a 7 7, 0, 0, 0, 0 -14" transform="rotate(0,376,474)"/><rect x="383" y="131" width="14" height="14" transform="rotate(0,390,138)"/><rect x="383" y="145" width="14" height="14" transform="rotate(0,390,152)"/><rect x="383" y="187" width="14" height="14" transform="rotate(0,390,194)"/><path d="M 383 215v 14h 7a 7 7, 0, 0, 0, 0 -14" transform="rotate(180,390,222)"/><path d="M 383 243v 14h 14v -7a 7 7, 0, 0, 0, -7 -7" transform="rotate(0,390,250)"/><rect x="383" y="257" width="14" height="14" transform="rotate(0,390,264)"/><path d="M 383 271v 14h 14v -7a 7 7, 0, 0, 0, -7 -7" transform="rotate(180,390,278)"/><rect x="383" y="299" width="14" height="14" transform="rotate(0,390,306)"/><path d="M 383 313v 14h 7a 7 7, 0, 0, 0, 0 -14" transform="rotate(90,390,320)"/><rect x="383" y="355" width="14" height="14" transform="rotate(0,390,362)"/><circle cx="390" cy="390" r="7" transform="rotate(0,390,390)"/><rect x="383" y="411" width="14" height="14" transform="rotate(0,390,418)"/><rect x="383" y="425" width="14" height="14" transform="rotate(0,390,432)"/><rect x="383" y="439" width="14" height="14" transform="rotate(0,390,446)"/><path d="M 383 453v 14h 14v -7a 7 7, 0, 0, 0, -7 -7" transform="rotate(180,390,460)"/><path d="M 397 131v 14h 14v -7a 7 7, 0, 0, 0, -7 -7" transform="rotate(0,404,138)"/><path d="M 397 145v 14h 14v -7a 7 7, 0, 0, 0, -7 -7" transform="rotate(90,404,152)"/><path d="M 397 173v 14h 14v -7a 7 7, 0, 0, 0, -7 -7" transform="rotate(-90,404,180)"/><rect x="397" y="187" width="14" height="14" transform="rotate(0,404,194)"/><rect x="397" y="201" width="14" height="14" transform="rotate(0,404,208)"/><path d="M 397 215v 14h 14v -7a 7 7, 0, 0, 0, -7 -7" transform="rotate(90,404,222)"/><rect x="397" y="257" width="14" height="14" transform="rotate(0,404,264)"/><rect x="397" y="271" width="14" height="14" transform="rotate(0,404,278)"/><path d="M 397 299v 14h 7a 7 7, 0, 0, 0, 0 -14" transform="rotate(0,404,306)"/><rect x="397" y="355" width="14" height="14" transform="rotate(0,404,362)"/><rect x="397" y="411" width="14" height="14" transform="rotate(0,404,418)"/><path d="M 397 453v 14h 7a 7 7, 0, 0, 0, 0 -14" transform="rotate(0,404,460)"/><path d="M 411 159v 14h 7a 7 7, 0, 0, 0, 0 -14" transform="rotate(-90,418,166)"/><rect x="411" y="173" width="14" height="14" transform="rotate(0,418,180)"/><rect x="411" y="201" width="14" height="14" transform="rotate(0,418,208)"/><path d="M 411 257v 14h 14v -7a 7 7, 0, 0, 0, -7 -7" transform="rotate(0,418,264)"/><rect x="411" y="271" width="14" height="14" transform="rotate(0,418,278)"/><path d="M 411 285v 14h 14v -7a 7 7, 0, 0, 0, -7 -7" transform="rotate(180,418,292)"/><circle cx="418" cy="334" r="7" transform="rotate(0,418,334)"/><path d="M 411 355v 14h 14v -7a 7 7, 0, 0, 0, -7 -7" transform="rotate(0,418,362)"/><rect x="411" y="369" width="14" height="14" transform="rotate(0,418,376)"/><rect x="411" y="383" width="14" height="14" transform="rotate(0,418,390)"/><rect x="411" y="397" width="14" height="14" transform="rotate(0,418,404)"/><rect x="411" y="411" width="14" height="14" transform="rotate(0,418,418)"/><path d="M 411 425v 14h 14v -7a 7 7, 0, 0, 0, -7 -7" transform="rotate(180,418,432)"/><circle cx="432" cy="138" r="7" transform="rotate(0,432,138)"/><path d="M 425 173v 14h 7a 7 7, 0, 0, 0, 0 -14" transform="rotate(0,432,180)"/><rect x="425" y="201" width="14" height="14" transform="rotate(0,432,208)"/><rect x="425" y="215" width="14" height="14" transform="rotate(0,432,222)"/><rect x="425" y="229" width="14" height="14" transform="rotate(0,432,236)"/><path d="M 425 243v 14h 7a 7 7, 0, 0, 0, 0 -14" transform="rotate(90,432,250)"/><path d="M 425 285v 14h 14v -7a 7 7, 0, 0, 0, -7 -7" transform="rotate(0,432,292)"/><path d="M 425 299v 14h 7a 7 7, 0, 0, 0, 0 -14" transform="rotate(90,432,306)"/><path d="M 425 341v 14h 7a 7 7, 0, 0, 0, 0 -14" transform="rotate(180,432,348)"/><path d="M 425 383v 14h 7a 7 7, 0, 0, 0, 0 -14" transform="rotate(0,432,390)"/><rect x="425" y="411" width="14" height="14" transform="rotate(0,432,418)"/><rect x="425" y="425" width="14" height="14" transform="rotate(0,432,432)"/><rect x="425" y="439" width="14" height="14" transform="rotate(0,432,446)"/><path d="M 425 453v 14h 7a 7 7, 0, 0, 0, 0 -14" transform="rotate(90,432,460)"/><path d="M 439 145v 14h 7a 7 7, 0, 0, 0, 0 -14" transform="rotate(180,446,152)"/><rect x="439" y="201" width="14" height="14" transform="rotate(0,446,208)"/><rect x="439" y="215" width="14" height="14" transform="rotate(0,446,222)"/><path d="M 439 257v 14h 7a 7 7, 0, 0, 0, 0 -14" transform="rotate(-90,446,264)"/><path d="M 439 271v 14h 14v -7a 7 7, 0, 0, 0, -7 -7" transform="rotate(180,446,278)"/><path d="M 439 313v 14h 7a 7 7, 0, 0, 0, 0 -14" transform="rotate(180,446,320)"/><rect x="439" y="341" width="14" height="14" transform="rotate(0,446,348)"/><path d="M 439 355v 14h 7a 7 7, 0, 0, 0, 0 -14" transform="rotate(90,446,362)"/><path d="M 439 411v 14h 14v -7a 7 7, 0, 0, 0, -7 -7" transform="rotate(0,446,418)"/><path d="M 439 425v 14h 14v -7a 7 7, 0, 0, 0, -7 -7" transform="rotate(90,446,432)"/><circle cx="446" cy="474" r="7" transform="rotate(0,446,474)"/><path d="M 453 131v 14h 7a 7 7, 0, 0, 0, 0 -14" transform="rotate(-90,460,138)"/><path d="M 453 145v 14h 14v -7a 7 7, 0, 0, 0, -7 -7" transform="rotate(90,460,152)"/><path d="M 453 173v 14h 7a 7 7, 0, 0, 0, 0 -14" transform="rotate(-90,460,180)"/><rect x="453" y="187" width="14" height="14" transform="rotate(0,460,194)"/><rect x="453" y="201" width="14" height="14" transform="rotate(0,460,208)"/><rect x="453" y="215" width="14" height="14" transform="rotate(0,460,222)"/><rect x="453" y="229" width="14" height="14" transform="rotate(0,460,236)"/><path d="M 453 243v 14h 7a 7 7, 0, 0, 0, 0 -14" transform="rotate(90,460,250)"/><rect x="453" y="271" width="14" height="14" transform="rotate(0,460,278)"/><rect x="453" y="313" width="14" height="14" transform="rotate(0,460,320)"/><rect x="453" y="327" width="14" height="14" transform="rotate(0,460,334)"/><rect x="453" y="341" width="14" height="14" transform="rotate(0,460,348)"/><path d="M 453 369v 14h 14v -7a 7 7, 0, 0, 0, -7 -7" transform="rotate(-90,460,376)"/><path d="M 453 383v 14h 7a 7 7, 0, 0, 0, 0 -14" transform="rotate(90,460,390)"/><circle cx="474" cy="166" r="7" transform="rotate(0,474,166)"/><path d="M 467 201v 14h 7a 7 7, 0, 0, 0, 0 -14" transform="rotate(0,474,208)"/><path d="M 467 257v 14h 7a 7 7, 0, 0, 0, 0 -14" transform="rotate(-90,474,264)"/><path d="M 467 271v 14h 14v -7a 7 7, 0, 0, 0, -7 -7" transform="rotate(90,474,278)"/><path d="M 467 313v 14h 7a 7 7, 0, 0, 0, 0 -14" transform="rotate(0,474,320)"/><path d="M 467 341v 14h 14v -7a 7 7, 0, 0, 0, -7 -7" transform="rotate(0,474,348)"/><rect x="467" y="355" width="14" height="14" transform="rotate(0,474,362)"/><path d="M 467 369v 14h 14v -7a 7 7, 0, 0, 0, -7 -7" transform="rotate(90,474,376)"/><circle cx="474" cy="418" r="7" transform="rotate(0,474,418)"/><circle cx="474" cy="460" r="7" transform="rotate(0,474,460)"/></clipPath><clipPath id="clip-path-corners-square-color-0-0"><path clip-rule="evenodd" d="M 19 54v 28a 35 35, 0, 0, 0, 35 35h 28a 35 35, 0, 0, 0, 35 -35v -28a 35 35, 0, 0, 0, -35 -35h -28a 35 35, 0, 0, 0, -35 35M 54 33h 28a 21 21, 0, 0, 1, 21 21v 28a 21 21, 0, 0, 1, -21 21h -28a 21 21, 0, 0, 1, -21 -21v -28a 21 21, 0, 0, 1, 21 -21" transform="rotate(0,68,68)"/></clipPath><clipPath id="clip-path-corners-dot-color-0-0"><circle cx="68" cy="68" r="21" transform="rotate(0,68,68)"/></clipPath><clipPath id="clip-path-corners-square-color-1-0"><path clip-rule="evenodd" d="M 383 54v 28a 35 35, 0, 0, 0, 35 35h 28a 35 35, 0, 0, 0, 35 -35v -28a 35 35, 0, 0, 0, -35 -35h -28a 35 35, 0, 0, 0, -35 35M 418 33h 28a 21 21, 0, 0, 1, 21 21v 28a 21 21, 0, 0, 1, -21 21h -28a 21 21, 0, 0, 1, -21 -21v -28a 21 21, 0, 0, 1, 21 -21" transform="rotate(90,432,68)"/></clipPath><clipPath id="clip-path-corners-dot-color-1-0"><circle cx="432" cy="68" r="21" transform="rotate(90,432,68)"/></clipPath><clipPath id="clip-path-corners-square-color-0-1"><path clip-rule="evenodd" d="M 19 418v 28a 35 35, 0, 0, 0, 35 35h 28a 35 35, 0, 0, 0, 35 -35v -28a 35 35, 0, 0, 0, -35 -35h -28a 35 35, 0, 0, 0, -35 35M 54 397h 28a 21 21, 0, 0, 1, 21 21v 28a 21 21, 0, 0, 1, -21 21h -28a 21 21, 0, 0, 1, -21 -21v -28a 21 21, 0, 0, 1, 21 -21" transform="rotate(-90,68,432)"/></clipPath><clipPath id="clip-path-corners-dot-color-0-1"><circle cx="68" cy="432" r="21" transform="rotate(-90,68,432)"/></clipPath></defs><rect x="0" y="0" height="500" width="500" clip-path="url('#clip-path-background-color')" fill="#fff"/><rect x="0" y="0" height="500" width="500" clip-path="url('#clip-path-dot-color')" fill="#000000"/><rect x="19" y="19" height="98" width="98" clip-path="url('#clip-path-corners-square-color-0-0')" fill="#000000"/><rect x="47" y="47" height="42" width="42" clip-path="url('#clip-path-corners-dot-color-0-0')" fill="#000000"/><rect x="383" y="19" height="98" width="98" clip-path="url('#clip-path-corners-square-color-1-0')" fill="#000000"/><rect x="411" y="47" height="42" width="42" clip-path="url('#clip-path-corners-dot-color-1-0')" fill="#000000"/><rect x="19" y="383" height="98" width="98" clip-path="url('#clip-path-corners-square-color-0-1')" fill="#000000"/><rect x="47" y="411" height="42" width="42" clip-path="url('#clip-path-corners-dot-color-0-1')" fill="#000000"/></svg>