<svg xmlns="http://www.w3.org/2000/svg" xml:space="preserve" class="{{$class}}--svg" viewBox="0 0 1000 1000"><path d="M178.837 767.382c-16.116-2.533-28.854-6.536-43.317-13.61-43.838-21.442-74.728-62.185-82.967-109.43-2.392-13.718-2.326-39.247.135-52.22 5.746-30.292 18.882-56.162 39.493-77.776 16.38-17.179 37.017-30.773 58.388-38.462 10.923-3.93 13.232-6.927 17.049-22.128 4.023-16.02 8.918-27.873 16.718-40.483 13.717-22.173 29.879-37.499 50.194-47.597 16.627-8.265 25.242-10.373 42.079-10.299 23.726.106 38.712 5.144 65.02 21.86 4.443 2.823 14.406 3.005 19.527.357 4.809-2.486 8.638-7.571 14.425-19.154 9.96-19.937 23.262-38.029 41.846-56.917 21.226-21.572 42.787-37.022 69.226-49.606 28.527-13.578 52.48-19.568 82.654-20.67 69.824-2.547 135.76 28.43 180.853 84.966 13.38 16.775 28.557 45.278 35.585 66.832 8.79 26.957 11.897 51.521 10.687 84.486l-.853 23.224 3.158 5.39c4.31 7.355 8.664 9.097 26.296 10.525 18.684 1.514 32.593 5.018 47.117 11.873 15.63 7.376 23.919 13.092 36.478 25.152 17.556 16.86 29.425 36.519 36.384 60.265 4.445 15.169 5.592 42.098 2.454 57.62-9.762 48.278-42.13 85.347-87.936 100.705-21.5 7.208-5.15 6.894-352.104 6.768-249.433-.09-320.84-.453-328.59-1.671z" style="fill:#1d9bf0"/></svg>